<svg xmlns="http://www.w3.org/2000/svg" xmlns:v="https://vecta.io/nano" viewBox="0 0 370.69 317.17" class="h-full"><style><![CDATA[.G{fill-rule:evenodd}.H{stroke-width:.22}]]></style><defs><linearGradient id="A" x1="-91.56" y1="626.95" x2="-91.56" y2="625.95" gradientTransform="matrix(-70.91, 230.45, 167.06, 97.82, -110886.24, -40020.8)" gradientUnits="userSpaceOnUse"><stop offset="0" stop-color="#e9590f"/><stop offset="1" stop-color="#f69d0d"/></linearGradient></defs><path d="M163.93 87.7l-10.42 35.44-87.62 41.71 65 45.44-8.7 29.26-93-59.72L0 160.69l30.55-13.35zm15.76-7.18l33.67 2.88-48.23 183.88-32.58-21.15L177 81.69z" fill="#000200" class="G"/><path d="M286.09,100c-2.59,3.12,3.16,3.3-2.95,2.21l-2.85-1.79c-9.9-3.56-9.89,0-17.12,5.84,4.08-15.37,7.87-15.79,17.77-23.72,8.58-6.87,11.87-13.68,22-18.55l1.31,52.65c-18.72-8.58-15.05-10.35-16.63-19.46ZM178.37,256.5c6.88,7,17.19,17.16,24.32,22.63-5.26-15.93-4.54-13-4.18-32l-.95-31.2c-.24-4.32-14.35-1-13-6.27l6-22.81c5.79,5.6,14.19,14,17.07,22.13v0c1.63,4.92,2.26,11.3,2.13,18.79v34.82c27-6.69,7.61-9.17,37.28.91,2-12,.93-25.63.83-37.89-.23-28.58,2.43-22.2,44.43-64.29,7.77,3.39,21.61,18.07,26.1,25.3l-23.32-5.78c-5.58,6.62-7.79,20.47-11.92,24.27-3.6,3.31-18,5-25.05,9.53.73,33,5,44.78-5.15,66.89,10.69-7.11,18.39-16.47,26.31-24.46,17.86-18,12.92-17.52,30.66-19-4.79-5.06-7.51-3.28-2.52-10.35,5.76-8.18,30.8-4.13,47.59-5.21l-25.23-75.4c-5.22,3.87-5.07,6-10.6,10.06,1.58-9.56,5.85-20.93,6.16-30.38.28-8.85-2-22.48-2.95-32-2.14-20.86-3.67-42.76-6.86-63.6-15.35,13.77-49.6,53.43-64.24,62.53,4,7.2-2.61,2.8,7.19,6.54H213.26L173.54,251.54c-.58,2.2,3.19,3.29,4.83,5Z" fill="url(#A)"/><path d="M217.69 288.67L215.6 286a24.87 24.87 0 0 1-2.61-4.2c-3.9-8.13-2.5-3.77-1.73-11.06l9.88-5.07c-7.22 13.81-5.22 6.87-3.45 23zm-30.37-89.61c.52-2 2.59 2.21 4.63 4.68-2.31-.26-6 .73-5.66-.73zm89.15 1.15l-11.62 3.57c5.54-9.94 6.8-10.71 14.89-14.84zm-63.21-100h45.18c-9.8-3.74-3.22.65-7.19-6.54 14.64-9.1 48.89-48.76 64.24-62.53 3.19 20.84 4.72 42.74 6.86 63.6 1 9.52 3.23 23.15 2.95 32-.31 9.45-4.58 20.82-6.16 30.38 5.53-4.08 5.38-6.19 10.6-10.06L355 222.47c-16.78 1.08-41.83-3-47.59 5.21-5 7.07-2.27 5.29 2.52 10.35-17.74 1.49-12.8 1-30.66 19-7.92 8-15.62 17.35-26.31 24.46 10.17-22.11 5.88-33.84 5.15-66.89 7.07-4.48 21.45-6.22 25.05-9.54 4.13-3.79 6.34-17.64 11.92-24.26l23.32 5.78c-4.49-7.23-18.33-21.91-26.11-25.3-42 42.09-44.66 35.71-44.42 64.29.1 12.26 1.18 25.92-.83 37.89-29.67-10.08-10.26-7.6-37.28-.91v-34.81c.14-21.34-4.19-26.7-19.21-40.94h0l-5.87 22.2c-1.63 6.2 12.48 2.33 12.88 6.85l.95 31.2c-.36 19-1.07 16.12 4.18 32-7.13-5.47-17.44-15.62-24.32-22.63l-4.7-5.11zm-44.51 169.68l59.51 47.28c52.16-26.86 56-62.86 105-67.85-2.4-5.35-5-7.81-7.62-12.83l45.08-.8c-1.07-18.3-24.37-84.44-28.9-113.06C340.33 113.4 328.63 8.28 322.58 0l-91.52 91.54c-5.71-1.11-12.49-11.69-13.75-6.9zm111.54-169.47l2.84 1.79 2.86.52c-.85-.74-.8-1.66.1-2.73l1.5-2.82c1.58 9.11-2.09 10.88 16.63 19.46L302.91 64c-10.11 4.87-13.39 11.68-22 18.55-9.9 7.93-13.69 8.35-17.77 23.72 7.23-5.83 7.23-9.41 17.12-5.84z" fill="#000200" class="G"/><g fill="#fff" class="G"><path d="M217.69,288.67c-1.77-16.13-3.77-9.19,3.45-23l-9.88,5.07c-.77,7.29-2.17,2.93,1.73,11.06a24.87,24.87,0,0,0,2.61,4.2Zm62.05-99.73c-8.09,4.13-9.35,4.9-14.89,14.84l11.62-3.57Z"/><path d="M176.94,190.32c2.93,7.52,1.69,10.19,5.32,11.64h0l1.58-6h0c-3.57-3.44-2.09-2.74-6.9-5.64Z" stroke="#fff" class="H"/><path d="M294,52.77c6.35-6.77,14.48-15.05,21.48-21.62,1.89,12.31,4.27,35.35,5.32,47.66L313,39.56Z"/><g stroke="#fff"><g stroke-linejoin="round"><path d="M355,222.47l-16.51-49.35,12.83,46.26c-13.14-1.2-46.13-5.48-50.83,11.21a8.1,8.1,0,0,0,5,6.2,17.22,17.22,0,0,0-11.24,1L276.46,259.9c3.4-3.25,15.49-16.94,19.46-19.39,1.8-1.13,6.24-2,14-2.48-1.87-2.9-6.57-3.38-4.82-6.65,1.81-3.58,3.87-5.85,6.2-6.66,3.53-1.55,9.1-2.33,16.77-2.3l19.26.25Z" class="H"/><path d="M269.37 183.39c-13.05 11.35-21.29 20.13-21.34 31.7-.34 16.13 1.1 35.06-1 48.38l-3.13-60.14zm-78.79 3.46l23.83 17.5-4.68 58.21c-.37-16.62.94-36.85-1.13-49.86-1.43-8.91-7.85-17.51-18.02-25.85z" stroke-width=".57"/></g><path d="M173.67,251.39l1-3.76,11.6,16.75c-4.52-4.29-8.65-8.62-12.59-13Zm12.6-48.09c.24,1,3.79.08,5.68.44-1.18-1.56-2.14-2.89-2.95-4.08s-1.28-1.31-1.53-.94Z" class="H"/></g></g></svg>
