<svg xmlns="http://www.w3.org/2000/svg" width="101" height="40" viewBox="0 0 101 40" fill="none"><path d="M51.2256 25.0172H48.1024V33.57H42.0469V7.61641C42.0469 7.04464 42.5123 6.58008 43.0864 6.58008H51.2268C56.6725 6.58008 60.7481 10.6099 60.7481 15.8177C60.7469 21.0256 56.6713 25.0172 51.2256 25.0172ZM51.1493 12.2823H48.1024V19.3532H51.1493C53.3201 19.3532 54.8823 17.7951 54.8823 15.8177C54.8823 13.8034 53.3201 12.2823 51.1493 12.2823Z" fill="#0000C8"></path><path d="M60.9336 24.0652C60.9336 18.4773 65.4651 14.1426 70.9501 14.1426C76.4352 14.1426 80.9667 18.4761 80.9667 24.0652C80.9667 29.653 76.434 33.9865 70.9501 33.9865C65.4651 33.9865 60.9336 29.653 60.9336 24.0652ZM75.1773 24.0652C75.1773 21.3659 73.349 19.5029 70.949 19.5029C68.5501 19.5029 66.7218 21.3659 66.7218 24.0652C66.7218 26.7644 68.5501 28.6262 70.949 28.6262C73.3502 28.6262 75.1773 26.7644 75.1773 24.0652Z" fill="#0000C8"></path><path d="M93.4961 9.16123C93.4961 7.18506 95.1335 5.58887 97.0764 5.58887C99.0945 5.58887 100.695 7.18506 100.695 9.16123C100.695 11.1386 99.0945 12.7348 97.0764 12.7348C95.1347 12.7348 93.4961 11.1386 93.4961 9.16123ZM94.9784 14.5597H99.2127C99.6316 14.5597 99.9717 14.8992 99.9717 15.3173V33.5662H94.2205V15.3161C94.2205 14.8992 94.5595 14.5597 94.9784 14.5597Z" fill="#0000C8"></path><path d="M84.1272 8.54586V33.5667H89.8784V7.74657C89.8784 7.08547 89.2662 6.59351 88.6181 6.73407L84.9435 7.53454C84.4673 7.63698 84.1272 8.05985 84.1272 8.54586Z" fill="#0000C8"></path><path d="M35.0215 9.28908C35.0192 9.26287 35.0168 9.23905 35.0132 9.21284C34.8103 7.28193 33.371 5.6786 31.4293 5.29027L5.37168 0.0883626C2.59335 -0.465539 0 1.65477 0 4.48503V35.5154C0 38.3445 2.59335 40.466 5.37168 39.9109L31.4293 34.709C33.371 34.3206 34.8091 32.7173 35.0132 30.7864C35.0168 30.7602 35.0203 30.7364 35.0215 30.7102C35.0335 30.5791 35.0382 30.4469 35.0382 30.3135V9.68574C35.0382 9.55233 35.0335 9.41892 35.0215 9.28908ZM10.5118 26.8376V13.1616C10.5118 13.0866 10.5142 13.0115 10.5202 12.9377C10.6539 11.1985 12.333 9.9621 14.0635 10.3945L22.3627 12.466C23.6349 12.7828 24.5276 13.924 24.5276 15.2331V24.7673C24.5276 26.0765 23.6349 27.2176 22.3627 27.5345L14.0635 29.6059C12.3342 30.0371 10.655 28.8007 10.5202 27.0628C10.5142 26.9877 10.5118 26.9127 10.5118 26.8376Z" fill="#0000C8"></path><path d="M35.0376 9.61432V30.3814C35.0376 30.4922 35.0316 30.6018 35.0209 30.709C35.0185 30.7352 35.0161 30.7591 35.0125 30.7853C34.7953 32.4863 33.214 33.7275 31.462 33.4773L14.1667 31.0104C12.1545 30.7245 10.6389 29.0628 10.5195 27.0604C10.6532 28.7995 12.3324 30.0348 14.0629 29.6036L22.362 27.5321C23.6343 27.2141 24.527 26.0729 24.527 24.765V15.2308C24.527 13.9216 23.6343 12.7805 22.362 12.4636L14.0629 10.3922C12.3336 9.95977 10.6544 11.1974 10.5195 12.9353C10.6377 10.933 12.1534 9.27126 14.1667 8.98538L31.462 6.51843C33.214 6.26828 34.7941 7.5095 35.0125 9.21051C35.0161 9.23672 35.0197 9.26054 35.0209 9.28675C35.0328 9.39395 35.0376 9.50354 35.0376 9.61432Z" fill="#FF675F"></path></svg>